<svg xmlns="http://www.w3.org/2000/svg" viewBox="0 0 180 56" width="180" height="56">
  <!-- Sangfor icon: stylized S -->
  <path d="M14 10 C8 10 4 14 4 19 C4 24 8 27 14 28 L22 30 C26 31 28 33 28 36 C28 40 24 43 18 43 C12 43 8 40 7 35 L2 36 C3.5 43 10 48 18 48 C26 48 33 43 33 36 C33 30 28 26 22 25 L14 23 C10 22 9 20 9 18 C9 15 11 13 15 13 C19 13 22 15 23 19 L28 18 C26 13 21 10 14 10Z" fill="#E30613"/>
  <!-- Sangfor text -->
  <text x="42" y="35" font-family="Arial, Helvetica, sans-serif" font-size="20" font-weight="700" fill="#1A1A2E" letter-spacing="-0.5">sangfor</text>
</svg>
